<mxfile host="app.diagrams.net" modified="2021-07-07T07:45:16.310Z" agent="5.0 (Windows NT 10.0; Win64; x64) AppleWebKit/537.36 (KHTML, like Gecko) Chrome/91.0.4472.124 Safari/537.36" etag="DTin80yo4ios1NhrHUF_" version="14.8.4" type="github">
  <diagram name="Page-1" id="3e8102d1-ef87-2e61-34e1-82d9a586fe2e">
    <mxGraphModel dx="782" dy="434" grid="1" gridSize="10" guides="1" tooltips="1" connect="1" arrows="1" fold="1" page="1" pageScale="1" pageWidth="1100" pageHeight="850" background="none" math="0" shadow="0">
      <root>
        <mxCell id="0" />
        <mxCell id="1" parent="0" />
        <mxCell id="wvyHHVfMfl_ncNoVOAs7-10" value="" style="shape=or;whiteSpace=wrap;html=1;rotation=-180;fillColor=#99CCFF;strokeColor=none;flipH=0;" vertex="1" parent="1">
          <mxGeometry x="270" y="110" width="260" height="500" as="geometry" />
        </mxCell>
        <mxCell id="wvyHHVfMfl_ncNoVOAs7-1" value="" style="shape=or;whiteSpace=wrap;html=1;fillColor=#3399FF;strokeColor=none;" vertex="1" parent="1">
          <mxGeometry x="530" y="110" width="260" height="500" as="geometry" />
        </mxCell>
        <mxCell id="wvyHHVfMfl_ncNoVOAs7-3" value="硬件开发" style="shape=image;verticalLabelPosition=bottom;verticalAlign=top;imageAspect=0;aspect=fixed;image=data:image/svg+xml,PHN2ZyB4bWxucz0iaHR0cDovL3d3dy53My5vcmcvMjAwMC9zdmciIHhtbG5zOnhsaW5rPSJodHRwOi8vd3d3LnczLm9yZy8xOTk5L3hsaW5rIiB0PSIxNjI1NjM5NDc3MjM3IiBjbGFzcz0iaWNvbiIgdmlld0JveD0iMzEuOTk5OTk4MDkyNjUxMzY3IDY0IDk2MCA4NjQiIHZlcnNpb249IjEuMSIgcC1pZD0iMTI1NCIgd2lkdGg9Ijk2MCIgaGVpZ2h0PSI4NjQiPjxkZWZzPjxzdHlsZSB0eXBlPSJ0ZXh0L2NzcyIvPjwvZGVmcz48cGF0aCBkPSJNMTkyIDgwMGg2NDBhMzIgMzIgMCAwIDAgMC02NEgxOTJhMzIgMzIgMCAwIDAgMCA2NHoiIHAtaWQ9IjEyNTUiLz48cGF0aCBkPSJNOTkwLjI3MiA1OTYuOTZMODc1LjI2NCAxMTMuMjE2QTY0IDY0IDAgMCAwIDgxMi45OTIgNjRIMjEwLjMzNmMtMjkuNjY0IDAtNTUuNDU2IDIwLjM4NC02Mi4zMDQgNDkuMjhMMzMuNzI4IDU5Ni45OTJhNjMuNjggNjMuNjggMCAwIDAtMS43MjggMTQuNzUyVjg2NGE2NCA2NCAwIDAgMCA2NCA2NGg4MzJhNjQgNjQgMCAwIDAgNjQtNjR2LTI1Mi4yNTZjMC00Ljk5Mi0wLjU3Ni05Ljk1Mi0xLjcyOC0xNC43ODR6TTgxMi45OTIgMTI4bDExNC4xMTIgNDgwaC0zODQuOTZjMC44OTYtMi45NDQgMS44NTYtNS45MiAxLjg1Ni05LjE1MlY1MTJjMC0zLjg0LTAuOTYtNy40MjQtMi4xNzYtMTAuODQ4QzY0OS43OTIgNDkxLjM2IDczNiA0MjkuMzc2IDczNiAzNDcuMzI4YzAtODEuNTA0LTg1LjA1Ni0xNDMuMTY4LTE5Mi0xNTMuNlYxMjhoMjY4Ljk5MnpNNTEyIDI1NmM5MC41NiAwIDE2MCA0NC42MDggMTYwIDkxLjMyOHMtNjkuNDQgOTEuMzI4LTE2MCA5MS4zMjgtMTYwLTQ0LjYwOC0xNjAtOTEuMzI4UzQyMS40NCAyNTYgNTEyIDI1NnpNMjEwLjMzNiAxMjhINDgwdjY1LjcyOGMtMTA2Ljk0NCAxMC40LTE5MiA3Mi4wOTYtMTkyIDE1My42IDAgODIuMDQ4IDg2LjIwOCAxNDQuMDY0IDE5NC4xNzYgMTUzLjgyNEEzMi4yNTYgMzIuMjU2IDAgMCAwIDQ4MCA1MTJ2ODYuODQ4YzAgMy4yMzIgMC45NiA2LjIwOCAxLjg1NiA5LjE1Mkg5Ni44OTZMMjEwLjMzNiAxMjh6TTkyOCA4NjRIOTZ2LTE5Mmg4MzJ2MTkyeiIgcC1pZD0iMTI1NiIvPjwvc3ZnPg==" vertex="1" parent="1">
          <mxGeometry x="380" y="190" width="64.78" height="58.3" as="geometry" />
        </mxCell>
        <mxCell id="wvyHHVfMfl_ncNoVOAs7-4" value="嵌入式开发" style="shape=image;verticalLabelPosition=bottom;verticalAlign=top;imageAspect=0;aspect=fixed;image=data:image/svg+xml,PHN2ZyB4bWxucz0iaHR0cDovL3d3dy53My5vcmcvMjAwMC9zdmciIHhtbG5zOnhsaW5rPSJodHRwOi8vd3d3LnczLm9yZy8xOTk5L3hsaW5rIiB0PSIxNjI1NjM5NTM4OTc1IiBjbGFzcz0iaWNvbiIgdmlld0JveD0iMjEuOTQyODUyMDIwMjYzNjcyIDIxLjk0Mjg1MjAyMDI2MzY3MiA5OTQuNzQyOTgwOTU3MDMxMiA5ODcuNDI4NjQ5OTAyMzQzOCIgdmVyc2lvbj0iMS4xIiBwLWlkPSIyMDg3IiB3aWR0aD0iOTk0Ljc0Mjk4MDk1NzAzMTIiIGhlaWdodD0iOTg3LjQyODY0OTkwMjM0MzgiPjxkZWZzPjxzdHlsZSB0eXBlPSJ0ZXh0L2NzcyIvPjwvZGVmcz48cGF0aCBkPSJNNjE0LjQgMzM2LjQ1NzE0M0g0MDkuNmMtNDMuODg1NzE0IDAtNzMuMTQyODU3IDI5LjI1NzE0My03My4xNDI4NTcgNzMuMTQyODU3djIxMi4xMTQyODZjMCAzNi41NzE0MjkgMjkuMjU3MTQzIDY1LjgyODU3MSA3My4xNDI4NTcgNjUuODI4NTcxaDIxMi4xMTQyODZjMzYuNTcxNDI5IDAgNjUuODI4NTcxLTI5LjI1NzE0MyA2NS44Mjg1NzEtNzMuMTQyODU3VjQwOS42YzAtNDMuODg1NzE0LTI5LjI1NzE0My03My4xNDI4NTctNzMuMTQyODU3LTczLjE0Mjg1N3ogbS0xNC42Mjg1NzEgODcuNzcxNDI4djE4Mi44NTcxNDNINDI0LjIyODU3MVY0MjQuMjI4NTcxaDE3NS41NDI4NTh6IiBmaWxsPSIjMzMzMzMzIiBwLWlkPSIyMDg4Ii8+PHBhdGggZD0iTTk1OC4xNzE0MjkgNTU1Ljg4NTcxNGMyMS45NDI4NTcgMCA0My44ODU3MTQtMjEuOTQyODU3IDQzLjg4NTcxNC00My44ODU3MTRzLTIxLjk0Mjg1Ny00My44ODU3MTQtNDMuODg1NzE0LTQzLjg4NTcxNGgtMTE3LjAyODU3MnYtNzMuMTQyODU3aDExNy4wMjg1NzJjMjEuOTQyODU3IDAgNDMuODg1NzE0LTIxLjk0Mjg1NyA0My44ODU3MTQtNDMuODg1NzE1cy0yMS45NDI4NTctNDMuODg1NzE0LTQzLjg4NTcxNC00My44ODU3MTRoLTExNy4wMjg1NzJ2LTcuMzE0Mjg2YzAtNjUuODI4NTcxLTUxLjItMTI0LjM0Mjg1Ny0xMjQuMzQyODU3LTEyNC4zNDI4NTdoLTcuMzE0Mjg2VjY1LjgyODU3MWMwLTIxLjk0Mjg1Ny0yMS45NDI4NTctNDMuODg1NzE0LTQzLjg4NTcxNC00My44ODU3MTRzLTM2LjU3MTQyOSAxNC42Mjg1NzEtMzYuNTcxNDI5IDQzLjg4NTcxNHYxMTcuMDI4NTcyaC03My4xNDI4NTdWNjUuODI4NTcxYzAtMjEuOTQyODU3LTIxLjk0Mjg1Ny00My44ODU3MTQtNDMuODg1NzE0LTQzLjg4NTcxNHMtNDMuODg1NzE0IDE0LjYyODU3MS00My44ODU3MTQgNDMuODg1NzE0djExNy4wMjg1NzJoLTczLjE0Mjg1N1Y2NS44Mjg1NzFjMC0yMS45NDI4NTctMjEuOTQyODU3LTQzLjg4NTcxNC00My44ODU3MTUtNDMuODg1NzE0cy00My44ODU3MTQgMjEuOTQyODU3LTQzLjg4NTcxNCA0My44ODU3MTR2MTE3LjAyODU3MmgtNy4zMTQyODZjLTY1LjgyODU3MSAwLTEyNC4zNDI4NTcgNTEuMi0xMjQuMzQyODU3IDEyNC4zNDI4NTd2Ny4zMTQyODZINjUuODI4NTcxYy0yMS45NDI4NTcgMC00My44ODU3MTQgMjEuOTQyODU3LTQzLjg4NTcxNCA0My44ODU3MTRzMjEuOTQyODU3IDQzLjg4NTcxNCA0My44ODU3MTQgNDMuODg1NzE0aDExNy4wMjg1NzJ2NzMuMTQyODU3SDY1LjgyODU3MWMtMjkuMjU3MTQzLTcuMzE0Mjg2LTQzLjg4NTcxNCAxNC42Mjg1NzEtNDMuODg1NzE0IDM2LjU3MTQyOXMyMS45NDI4NTcgNDMuODg1NzE0IDQzLjg4NTcxNCA0My44ODU3MTRoMTE3LjAyODU3MnY3My4xNDI4NTdINjUuODI4NTcxYy0yMS45NDI4NTcgMC00My44ODU3MTQgMjEuOTQyODU3LTQzLjg4NTcxNCA0My44ODU3MTVzMjEuOTQyODU3IDQzLjg4NTcxNCA0My44ODU3MTQgNDMuODg1NzE0aDExNy4wMjg1NzJ2Ny4zMTQyODZjMCA2NS44Mjg1NzEgNTEuMiAxMjQuMzQyODU3IDEyNC4zNDI4NTcgMTI0LjM0Mjg1N2g3LjMxNDI4NnYxMTcuMDI4NTcxYzAgMjEuOTQyODU3IDIxLjk0Mjg1NyA0My44ODU3MTQgNDMuODg1NzE0IDQzLjg4NTcxNXM0My44ODU3MTQtMjEuOTQyODU3IDQzLjg4NTcxNC00My44ODU3MTV2LTExNy4wMjg1NzFoNzMuMTQyODU3djExNy4wMjg1NzFjMCAyMS45NDI4NTcgMjEuOTQyODU3IDQzLjg4NTcxNCA0My44ODU3MTUgNDMuODg1NzE1czQzLjg4NTcxNC0yMS45NDI4NTcgNDMuODg1NzE0LTQzLjg4NTcxNXYtMTE3LjAyODU3MWg3My4xNDI4NTd2MTE3LjAyODU3MWMwIDIxLjk0Mjg1NyAyMS45NDI4NTcgNDMuODg1NzE0IDQzLjg4NTcxNCA0My44ODU3MTVzNDMuODg1NzE0LTIxLjk0Mjg1NyA0My44ODU3MTUtNDMuODg1NzE1di0xMTcuMDI4NTcxaDcuMzE0Mjg1YzY1LjgyODU3MSAwIDEyNC4zNDI4NTctNTEuMiAxMjQuMzQyODU4LTEyNC4zNDI4NTd2LTE0LjYyODU3MmgxMTcuMDI4NTcxYzIxLjk0Mjg1NyAwIDQzLjg4NTcxNC0yMS45NDI4NTcgNDMuODg1NzE0LTQzLjg4NTcxNHMtMjEuOTQyODU3LTQzLjg4NTcxNC00My44ODU3MTQtNDMuODg1NzE0aC0xMTcuMDI4NTcxdi03My4xNDI4NTdoMTAyLjR6IG0tMTk3LjQ4NTcxNS0yNTZ2NDI0LjIyODU3MmMwIDIxLjk0Mjg1Ny0xNC42Mjg1NzEgMzYuNTcxNDI5LTM2LjU3MTQyOCAzNi41NzE0MjhIMjk5Ljg4NTcxNGMtMjEuOTQyODU3IDAtMzYuNTcxNDI5LTE0LjYyODU3MS0zNi41NzE0MjgtMzYuNTcxNDI4VjI5OS44ODU3MTRjMC0yMS45NDI4NTcgMTQuNjI4NTcxLTM2LjU3MTQyOSAzNi41NzE0MjgtMzYuNTcxNDI4aDQyNC4yMjg1NzJjMjEuOTQyODU3IDAgMzYuNTcxNDI5IDE0LjYyODU3MSAzNi41NzE0MjggMzYuNTcxNDI4eiIgZmlsbD0iIzMzMzMzMyIgcC1pZD0iMjA4OSIvPjwvc3ZnPg==" vertex="1" parent="1">
          <mxGeometry x="390" y="450.34000000000003" width="59.77" height="59.31" as="geometry" />
        </mxCell>
        <mxCell id="wvyHHVfMfl_ncNoVOAs7-5" value="算法部署" style="shape=image;verticalLabelPosition=bottom;verticalAlign=top;imageAspect=0;aspect=fixed;image=data:image/svg+xml,PHN2ZyB4bWxucz0iaHR0cDovL3d3dy53My5vcmcvMjAwMC9zdmciIHhtbG5zOnhsaW5rPSJodHRwOi8vd3d3LnczLm9yZy8xOTk5L3hsaW5rIiB0PSIxNjI1NjM5NjgwMjg3IiBjbGFzcz0iaWNvbiIgdmlld0JveD0iNTEuNTgzOTUwMDQyNzI0NjEgNjUuMzM5NzI5MzA5MDgyMDMgOTE2Ljk2NTAyNjg1NTQ2ODggODY3LjgwMzQ2Njc5Njg3NSIgdmVyc2lvbj0iMS4xIiBwLWlkPSI0MDk2IiB3aWR0aD0iOTE2Ljk2NTAyNjg1NTQ2ODgiIGhlaWdodD0iODY3LjgwMzQ2Njc5Njg3NSI+PGRlZnM+PHN0eWxlIHR5cGU9InRleHQvY3NzIi8+PC9kZWZzPjxwYXRoIGQ9Ik01MTAuMDY3IDM0Ni42ODJjLTg0LjIwNCAwLTE1Mi42MjYgNjguNDE0LTE1Mi42MjYgMTUyLjU3NyAwIDg0LjE1OSA2OC40ODcgMTUyLjYzOSAxNTIuNjI2IDE1Mi42MzkgOC40MTEgMCAxNy4wNzYtMC44NjMgMjcuMjYtMi43MzEgMTEuODc1LTIuMTY0IDE5LjcyNi0xMy41MDQgMTcuNTktMjUuMzQyLTIuMTg2LTExLjkwMi0xMy41MjEtMTkuODI4LTI1LjQwMS0xNy42MDItNy41MDQgMS4zNjMtMTMuNzQgMS45NzQtMTkuNDUgMS45NzQtNjAuMDczIDAtMTA4Ljk1NC00OC44OC0xMDguOTU0LTEwOC45MzggMC02MC4wNTMgNDguODgtMTA4Ljk0MyAxMDguOTU0LTEwOC45NDMgNjAuMTI4IDAgMTA4Ljk0MSA0OC44OTEgMTA4Ljk0MSAxMDguOTQzIDAgNS43NjMtMC42MjcgMTEuODk4LTIuMDA3IDE5LjQ1Ni0yLjIwNSAxMS44MzcgNS43MTEgMjMuMjQ0IDE3LjUyNSAyNS40MTIgMTEuODc1IDIuMTYgMjMuMjYyLTUuNzAxIDI1LjM3NS0xNy41MzcgMS44NC0xMC4xNjkgMi43Mi0xOC44NDQgMi43Mi0yNy4yNyAwLjA3MC04NC4yMjYtNjguNDIyLTE1Mi42MzktMTUyLjU1Ni0xNTIuNjM5djBNOTYwLjI0MyA0MTMuMzY1Yy0xLjYzMi04LjQ4Ni04LjEtMTUuMjUxLTE2LjUzMS0xNy4yMy00Ny44NjYtMTEuMDI1LTg3LjYzNC00MC4zNDctMTEyLjAwNS04Mi41NDctMjQuMzkxLTQyLjIwNC0yOS44NTctOTEuMjI4LTE1LjUzMi0xMzguMTM4IDIuNTExLTguMjQzLTAuMDUxLTE3LjIzMi02LjYxMS0yMi44Ny00My44OTgtMzcuOTI2LTkzLjk3LTY2Ljg2Ny0xNDguOTUzLTg2LjAyMS04LjE4MS0yLjg0My0xNy4yMTktMC42MjItMjMuMTQ5IDUuNzAxLTMzLjQ2NSAzNS45NDgtNzguNjkzIDU1LjY1My0xMjcuMzk1IDU1LjY1My00OC43MTYgMC05My45MzktMTkuNzczLTEyNy4zNzMtNTUuNTg2LTUuOTA5LTYuMzI0LTE1LjAyMy04LjU0OS0yMy4xNzktNS42OTYtNTQuOTIzIDE5LjA4My0xMDUuMDU3IDQ4LjAyMy0xNDguOTk4IDg2LjAwNS02LjQ5NiA1LjY0NS05LjA5NCAxNC42MjgtNi41NjcgMjIuODcgMTQuMjk0IDQ2Ljg1MyA4Ljc3MyA5NS45MzgtMTUuNTQzIDEzOC4wODItMjQuMzg3IDQyLjI2Mi02NC4xNDIgNzEuNTc5LTExMi4wMTQgODIuNTQ3LTguNDM1IDEuOTE0LTE0Ljk3MiA4LjY4My0xNi41MjYgMTcuMjMtNS41MjkgMjkuMDA2LTguMjgzIDU3Ljk1MS04LjI4MyA4NS44OTQgMCAyNy45NTUgMi43NTUgNTYuODk0IDguMjgzIDg1Ljg5NCAxLjYyNiA4LjQ5NCA4LjA5MCAxNS4yNDUgMTYuNTI2IDE3LjE2OSA0Ny44NzIgMTEuMDIwIDg3LjYyOCA0MC4zNDEgMTEyLjAxNCA4Mi41NDYgMjQuMzE2IDQyLjIwNCAyOS44MzcgOTEuMjM0IDE1LjU0MyAxMzguMTM4LTIuNTI3IDguMjQzIDAuMDcwIDE3LjIzNiA2LjU2NyAyMi44NyA0My45NDUgMzcuOTI2IDk0LjAxMCA2Ni44NjcgMTQ4Ljk5OCA4Ni4wMTcgMi4zMTcgMC44MTMgNC43NjMgMS4yNDEgNy4xNTIgMS4yNDEgNS45ODEgMCAxMS43NjMtMi40MTQgMTUuOTc3LTYuOTM1IDMzLjQ3NC0zNS44MjQgNzguNzA4LTU1LjU5MSAxMjcuNDI0LTU1LjU5MSA0OC43MDIgMCA5My45MzEgMTkuNzAxIDEyNy4zNTQgNTUuNTkxIDUuOTA0IDYuMzE5IDE0LjkzNSA4LjU0OSAyMy4xMjMgNS43NjMgNTQuOTA2LTE5LjA4OCAxMDQuOTk4LTQ4LjAzOSAxNDguOTg5LTg2LjAxMiA2LjUyMS01LjY0NSA5LjA4My0xNC42MzkgNi41OTItMjIuODgxLTE0LjMzNS00Ni44NDQtOC44MDctOTUuOTM0IDE1LjU4My0xMzguMTMzIDI0LjM3MS00Mi4yMTUgNjQuMTM4LTcxLjUyNiAxMTIuMDA1LTgyLjU1NiA4LjQzMS0xLjkxNCAxNC45MDEtOC42NjcgMTYuNTMxLTE3LjE1OSA1LjU0Mi0yOS4wNjcgOC4zMDQtNTguMDA2IDguMzA0LTg1Ljg5IDAuMDAxLTI3Ljk2My0yLjc2Mi01Ni45MDItOC4zMDQtODUuOTY4djBNOTE5LjcxOCA1NjMuNjU0Yy01Mi44OSAxNS45ODYtOTguMTk4IDUxLjYxMi0xMjUuODYxIDk5LjQ2Ny0yNy41NjkgNDcuNzczLTM1Ljc5OCAxMDQuNzg5LTIzLjI5NiAxNTguNTE4LTMzLjY4MyAyNy4yMTUtNzEuMTMyIDQ4Ljg0MS0xMTEuNTkxIDY0LjM5Ni00MC41MjctMzguMjQtOTIuODY0LTU5LjA1Ny0xNDguOTAyLTU5LjA1Ny01NS4xODIgMC0xMDguNjQ2IDIxLjM3NS0xNDguOTI4IDU5LjA1Ny00MC40NjQtMTUuNTU3LTc3LjkwMy0zNy4xODQtMTExLjUzNS02NC4zOTYgMTIuODM3LTU0LjIyNSA0LjczMy0xMDkuOTk5LTIzLjMwNy0xNTguNTI5LTI3LjcwOS00Ny44NDQtNzMuMDE3LTgzLjQ3LTEyNS45MDYtOTkuNDU1LTMuNDU0LTIxLjgxMy01LjIyMi00My4zOTQtNS4yMjItNjQuMzM1IDAtMjAuOTQ2IDEuNzY3LTQyLjU3MiA1LjIyMi02NC4zODYgNTIuODMzLTE1Ljk5NiA5OC4xNDMtNTEuNjI3IDEyNS43NzktOTkuNDcxIDI3LjU5MS00Ny43OSAzNS44MjctMTA0LjgwMiAyMy4zMzctMTU4LjUzIDMzLjY2OC0yNy4yNyA3MS4wMzAtNDguODM0IDExMS41NjItNjQuNDU0IDQwLjI5MSAzNy43MzggOTMuODE5IDU5LjEyNCAxNDguOTk4IDU5LjEyNCA1Ni4wMzcgMCAxMDguMzY4LTIwLjg5MSAxNDguOTctNTkuMDYyIDQwLjUzNyAxNS41NjMgNzcuOTc4IDM3LjE4NCAxMTEuNjE3IDY0LjM5MS0xMi41NTQgNTMuNzI4LTQuMzY2IDExMC43NCAyMy4yMDUgMTU4LjUzIDI3LjY2MyA0Ny44NDQgNzIuOTcxIDgzLjQ3NSAxMjUuODYxIDk5LjQ3MSAzLjQ2MyAyMS44NjkgNS4yMjcgNDMuNDM5IDUuMjI3IDY0LjM4Ni0wLjAwMSAyMC44ODItMS43NjQgNDIuNDYxLTUuMjI4IDY0LjMzNnYwTTkxOS43MTggNTYzLjY1NHoiIHAtaWQ9IjQwOTciLz48L3N2Zz4=" vertex="1" parent="1">
          <mxGeometry x="593" y="480" width="55.85" height="52.84" as="geometry" />
        </mxCell>
        <mxCell id="wvyHHVfMfl_ncNoVOAs7-6" value="数据获取与标注" style="shape=image;verticalLabelPosition=bottom;verticalAlign=top;imageAspect=0;aspect=fixed;image=data:image/svg+xml,PHN2ZyB4bWxucz0iaHR0cDovL3d3dy53My5vcmcvMjAwMC9zdmciIHhtbG5zOnhsaW5rPSJodHRwOi8vd3d3LnczLm9yZy8xOTk5L3hsaW5rIiB0PSIxNjI1NjM5NjA4MTUxIiBjbGFzcz0iaWNvbiIgdmlld0JveD0iMiAzMC41IDEwMjAuMTEyMTgyNjE3MTg3NSA5NjMuMTAwMDM2NjIxMDkzOCIgdmVyc2lvbj0iMS4xIiBwLWlkPSIyOTQ5IiB3aWR0aD0iMTAyMC4xMTIxODI2MTcxODc1IiBoZWlnaHQ9Ijk2My4xMDAwMzY2MjEwOTM4Ij48ZGVmcz48c3R5bGUgdHlwZT0idGV4dC9jc3MiLz48L2RlZnM+PHBhdGggZD0iTTY3MC42IDgzOC43YzAtMTEuOS04LjUtMjIuMS0xOS42LTIyLjFIMzc0LjZjLTExLjEgMC0xOS42IDEwLjItMTkuNiAyMi4xdjg4LjVIMTU3Ljd2NjYuNEg4Njh2LTY2LjRINjcwLjZ2LTg4LjV6TTk1Ni41IDMwLjVINjguNEMzMS44IDMwLjUgMiA2MC4zIDIgOTYuOXY2MjFjMCAzNi42IDI5LjggNjYuNCA2Ni40IDY2LjRoODg3LjNjMzYuNiAwIDY2LjQtMjkuOCA2Ni40LTY2LjR2LTYyMWMwLjctMzYuNi0yOS02Ni40LTY1LjYtNjYuNHogbTAgNjY1LjJjMCAxMS45LTEwLjIgMjIuMS0yMi4xIDIyLjFIOTAuNWMtMTEuOSAwLTIyLjEtMTAuMi0yMi4xLTIyLjFWMTE5YzAtMTEuOSAxMC4yLTIyLjEgMjIuMS0yMi4xaDg0M2MxMS45IDAgMjIuMSAxMC4yIDIyLjEgMjIuMWwwLjkgNTc2Ljd6IG0tMjI3LjItNDIuNWgxMTkuOVYzMDMuNkg3MjkuM3YzNDkuNnogbS0xOTIuMiAwSDY1N1YxOTYuNEg1MzcuMXY0NTYuOHogbS0zNjAuNyAwaDExOS45VjUxOC44SDE3Ni40djEzNC40eiBtMTY4LjQgMGgxMTkuOVY0MTEuNkgzNDQuOHYyNDEuNnoiIHAtaWQ9IjI5NTAiLz48L3N2Zz4=" vertex="1" parent="1">
          <mxGeometry x="571.85" y="176.75" width="51.15" height="48.3" as="geometry" />
        </mxCell>
        <mxCell id="70666756c84bb93c-2" value="" style="ellipse;whiteSpace=wrap;html=1;rounded=0;shadow=0;comic=0;strokeWidth=1;fontFamily=Verdana;fontSize=22;strokeColor=none;fillColor=#ffffff;fontColor=#0069D1;fontStyle=1" parent="1" vertex="1">
          <mxGeometry x="430" y="269.99" width="193" height="190" as="geometry" />
        </mxCell>
        <mxCell id="wvyHHVfMfl_ncNoVOAs7-2" value="应用落地" style="shape=image;verticalLabelPosition=bottom;verticalAlign=top;imageAspect=0;aspect=fixed;image=data:image/svg+xml,PHN2ZyB4bWxucz0iaHR0cDovL3d3dy53My5vcmcvMjAwMC9zdmciIHhtbG5zOnhsaW5rPSJodHRwOi8vd3d3LnczLm9yZy8xOTk5L3hsaW5rIiB0PSIxNjI1NjM5ODQ3NzkwIiBjbGFzcz0iaWNvbiIgdmlld0JveD0iOTUuNTczMzI2MTEwODM5ODQgMTAuMjM5OTk5NzcxMTE4MTY0IDEwMTMuNzYwMDcwODAwNzgxMiA5OTYuNjkzMzU5Mzc1IiB2ZXJzaW9uPSIxLjEiIHAtaWQ9IjgxOTUiIHdpZHRoPSIxMDEzLjc2MDA3MDgwMDc4MTIiIGhlaWdodD0iOTk2LjY5MzM1OTM3NSI+PGRlZnM+PHN0eWxlIHR5cGU9InRleHQvY3NzIi8+PC9kZWZzPjxwYXRoIGQ9Ik01OTcuMzMzMzMzIDUxMm0tMzY2LjkzMzMzMyAwYTM2Ni45MzMzMzMgMzY2LjkzMzMzMyAwIDEgMCA3MzMuODY2NjY3IDAgMzY2LjkzMzMzMyAzNjYuOTMzMzMzIDAgMSAwLTczMy44NjY2NjcgMFoiIGZpbGw9IiNFOUVBRUIiIHAtaWQ9IjgxOTYiLz48cGF0aCBkPSJNNzk3LjAxMzMzMyA2OTQuNjEzMzMzbS0yOTUuMjUzMzMzIDBhMjk1LjI1MzMzMyAyOTUuMjUzMzMzIDAgMSAwIDU5MC41MDY2NjcgMCAyOTUuMjUzMzMzIDI5NS4yNTMzMzMgMCAxIDAtNTkwLjUwNjY2NyAwWiIgZmlsbD0iI0ZGRkZGRiIgcC1pZD0iODE5NyIvPjxwYXRoIGQ9Ik03OTcuMDEzMzMzIDEwMDYuOTMzMzMzYy0xNzIuMzczMzMzIDAtMzEyLjMyLTEzOS45NDY2NjctMzEyLjMyLTMxMi4zMnMxMzkuOTQ2NjY3LTMxMi4zMiAzMTIuMzItMzEyLjMyUzExMDkuMzMzMzMzIDUyMy45NDY2NjcgMTEwOS4zMzMzMzMgNjk0LjYxMzMzMyA5NjkuMzg2NjY3IDEwMDYuOTMzMzMzIDc5Ny4wMTMzMzMgMTAwNi45MzMzMzN6IG0wLTU4OC44Yy0xNTMuNiAwLTI3OC4xODY2NjcgMTI0LjU4NjY2Ny0yNzguMTg2NjY2IDI3OC4xODY2NjdTNjQzLjQxMzMzMyA5NzIuOCA3OTcuMDEzMzMzIDk3Mi44IDEwNzUuMiA4NDguMjEzMzMzIDEwNzUuMiA2OTQuNjEzMzMzcy0xMjQuNTg2NjY3LTI3Ni40OC0yNzguMTg2NjY3LTI3Ni40OHpNMjM1Ljc0MTg2NyAyODMuMTcwMTMzbDEzOC43ODYxMzMtMTM4Ljc2OTA2NiAyNC4xMzIyNjcgMjQuMTMyMjY2LTEzOC43ODYxMzQgMTM4Ljc2OTA2N3oiIGZpbGw9IiMyQTUwODIiIHAtaWQ9IjgxOTgiLz48cGF0aCBkPSJNMzQyLjAxNiAxMTMuMDE1NDY3bDc5LjYzMzA2Ny03OS42NTAxMzQgOTUuMzUxNDY2IDk1LjMzNDQtNzkuNjUwMTMzIDc5LjY1MDEzNHoiIGZpbGw9IiNGRkZGRkYiIHAtaWQ9IjgxOTkiLz48cGF0aCBkPSJNNDM4LjYxMzMzMyAyMzMuODEzMzMzbC0xMTkuNDY2NjY2LTExOS40NjY2NjZMNDIzLjI1MzMzMyAxMC4yNGwxMTkuNDY2NjY3IDExOS40NjY2NjctMTA0LjEwNjY2NyAxMDQuMTA2NjY2eiBtLTcxLjY4LTEyMS4xNzMzMzNsNzEuNjggNzEuNjhMNDk0LjkzMzMzMyAxMjhsLTcxLjY4LTcxLjY4LTU2LjMyIDU2LjMyeiIgZmlsbD0iIzJBNTA4MiIgcC1pZD0iODIwMCIvPjxwYXRoIGQ9Ik0xMTkuMTU5NDY3IDMyMS4xOTQ2NjdsNzkuNjUwMTMzLTc5LjY2NzIgOTUuMzM0NCA5NS4zNTE0NjYtNzkuNjUwMTMzIDc5LjYzMzA2N3oiIGZpbGw9IiNGRkZGRkYiIHAtaWQ9IjgyMDEiLz48cGF0aCBkPSJNMjE1LjA0IDQ0MC4zMmwtMTE5LjQ2NjY2Ny0xMTkuNDY2NjY3IDEwNC4xMDY2NjctMTA0LjEwNjY2NiAxMTkuNDY2NjY3IDExOS40NjY2NjYtMTA0LjEwNjY2NyAxMDQuMTA2NjY3eiBtLTcxLjY4LTExOS40NjY2NjdsNzEuNjggNzEuNjggNTYuMzItNTYuMzItNzEuNjgtNzEuNjgtNTYuMzIgNTYuMzJ6TTQ3My43MzY1MzMgMzk1LjkxMjUzM2wyNC4xNDkzMzQtMjQuMTMyMjY2TDU0Ni4xMzMzMzMgNDIwLjA0NDhsLTI0LjE0OTMzMyAyNC4xMzIyNjd6IiBmaWxsPSIjMkE1MDgyIiBwLWlkPSI4MjAyIi8+PHBhdGggZD0iTTMwNy4yIDE0Ni43NzMzMzNsMTIyLjg4IDEyMi44OGMtMS43MDY2NjcgMTcuMDY2NjY3LTguNTMzMzMzIDM0LjEzMzMzMy0yMi4xODY2NjcgNDYuMDhzLTI5LjAxMzMzMyAyMC40OC00Ni4wOCAyMi4xODY2NjdMMjM4LjkzMzMzMyAyMTUuMDRjMS43MDY2NjctMTcuMDY2NjY3IDguNTMzMzMzLTM0LjEzMzMzMyAyMi4xODY2NjctNDYuMDggMTEuOTQ2NjY3LTEzLjY1MzMzMyAyOS4wMTMzMzMtMjAuNDggNDYuMDgtMjIuMTg2NjY3eiIgZmlsbD0iI0U5RUFFQiIgcC1pZD0iODIwMyIvPjxwYXRoIGQ9Ik0zNTQuOTg2NjY3IDM1NC45ODY2NjdMMjIxLjg2NjY2NyAyMjAuMTZsMS43MDY2NjYtOC41MzMzMzNjMS43MDY2NjctMjIuMTg2NjY3IDExLjk0NjY2Ny00MC45NiAyNy4zMDY2NjctNTYuMzIgMTUuMzYtMTUuMzYgMzQuMTMzMzMzLTIzLjg5MzMzMyA1Ni4zMi0yNy4zMDY2NjdsOC41MzMzMzMtMS43MDY2NjcgMTMzLjEyIDEzMy4xMi0xLjcwNjY2NiA4LjUzMzMzNGMtMS43MDY2NjcgMjIuMTg2NjY3LTExLjk0NjY2NyA0MC45Ni0yNy4zMDY2NjcgNTYuMzItMTUuMzYgMTUuMzYtMzQuMTMzMzMzIDIzLjg5MzMzMy01Ni4zMiAyNy4zMDY2NjZsLTguNTMzMzMzIDMuNDEzMzM0eiBtLTk3LjI4LTE0Ni43NzMzMzRsMTA5LjIyNjY2NiAxMDkuMjI2NjY3YzEwLjI0LTMuNDEzMzMzIDIwLjQ4LTguNTMzMzMzIDI5LjAxMzMzNC0xNS4zNiA4LjUzMzMzMy04LjUzMzMzMyAxMy42NTMzMzMtMTcuMDY2NjY3IDE1LjM2LTI5LjAxMzMzM2wtMTA5LjIyNjY2Ny0xMDkuMjI2NjY3Yy0xMC4yNCAzLjQxMzMzMy0yMC40OCA4LjUzMzMzMy0yOS4wMTMzMzMgMTUuMzZzLTEzLjY1MzMzMyAxOC43NzMzMzMtMTUuMzYgMjkuMDEzMzMzeiIgZmlsbD0iIzJBNTA4MiIgcC1pZD0iODIwNCIvPjxwYXRoIGQ9Ik0zNzguODggNDg2LjRjLTM3LjU0NjY2Ny01Ni4zMi0zMi40MjY2NjctMTMzLjEyIDE3LjA2NjY2Ny0xODIuNjEzMzMzIDQ5LjQ5MzMzMy00OS40OTMzMzMgMTI2LjI5MzMzMy01NC42MTMzMzMgMTgyLjYxMzMzMy0xNy4wNjY2NjdMMzc4Ljg4IDQ4Ni40eiIgZmlsbD0iI0EzRDRGRiIgcC1pZD0iODIwNSIvPjxwYXRoIGQ9Ik0zNzcuMTczMzMzIDUxMmwtMTEuOTQ2NjY2LTE3LjA2NjY2N2MtNDIuNjY2NjY3LTYzLjE0NjY2Ny0zNS44NC0xNTAuMTg2NjY3IDE4Ljc3MzMzMy0yMDQuOCA1NC42MTMzMzMtNTQuNjEzMzMzIDEzOS45NDY2NjctNjMuMTQ2NjY3IDIwNC44LTE4Ljc3MzMzM2wxNy4wNjY2NjcgMTEuOTQ2NjY3TDM3Ny4xNzMzMzMgNTEyeiBtMTIxLjE3MzMzNC0yMzMuODEzMzMzYy0zMi40MjY2NjcgMC02NC44NTMzMzMgMTEuOTQ2NjY3LTkwLjQ1MzMzNCAzNy41NDY2NjYtMzcuNTQ2NjY3IDM3LjU0NjY2Ny00Ny43ODY2NjcgOTUuNTczMzMzLTI1LjYgMTQxLjY1MzMzNGwxNjcuMjUzMzM0LTE2Ny4yNTMzMzRjLTE1LjM2LTYuODI2NjY3LTM0LjEzMzMzMy0xMS45NDY2NjctNTEuMi0xMS45NDY2NjZ6IiBmaWxsPSIjMkE1MDgyIiBwLWlkPSI4MjA2Ii8+PHBhdGggZD0iTTE0OC40OCA1NzYuODUzMzMzYy0xLjcwNjY2Ny0xNy4wNjY2NjctMy40MTMzMzMtMzUuODQtMy40MTMzMzMtNTIuOTA2NjY2aDM0LjEzMzMzM2MwIDE3LjA2NjY2NyAxLjcwNjY2NyAzMi40MjY2NjcgMy40MTMzMzMgNDkuNDkzMzMzbC0zNC4xMzMzMzMgMy40MTMzMzN6TTE2NS41NDY2NjcgNjU3LjA2NjY2N2MtNS4xMi0xNS4zNi04LjUzMzMzMy0zMC43Mi0xMS45NDY2NjctNDYuMDhsMzQuMTMzMzMzLTYuODI2NjY3YzMuNDEzMzMzIDE1LjM2IDYuODI2NjY3IDI5LjAxMzMzMyAxMS45NDY2NjcgNDIuNjY2NjY3bC0zNC4xMzMzMzMgMTAuMjR6TTE5Ni4yNjY2NjcgNzI3LjA0Yy02LjgyNjY2Ny0xMy42NTMzMzMtMTMuNjUzMzMzLTI3LjMwNjY2Ny0xOC43NzMzMzQtNDAuOTZsMzIuNDI2NjY3LTEzLjY1MzMzM2M1LjEyIDExLjk0NjY2NyAxMC4yNCAyNS42IDE3LjA2NjY2NyAzNy41NDY2NjZsLTMwLjcyIDE3LjA2NjY2N3pNNDc3Ljg2NjY2NyA5NDguOTA2NjY3Yy0xMTIuNjQtMjcuMzA2NjY3LTIwOC4yMTMzMzMtOTcuMjgtMjY3Ljk0NjY2Ny0xOTYuMjY2NjY3bDI5LjAxMzMzMy0xNy4wNjY2NjdjNTQuNjEzMzMzIDkwLjQ1MzMzMyAxNDUuMDY2NjY3IDE1Ny4wMTMzMzMgMjQ3LjQ2NjY2NyAxODAuOTA2NjY3bC04LjUzMzMzMyAzMi40MjY2Njd6TTEwMDYuOTMzMzMzIDM4Ny40MTMzMzNjLTUuMTItMTUuMzYtMTAuMjQtMzIuNDI2NjY3LTE3LjA2NjY2Ni00Ny43ODY2NjZsMzAuNzItMTMuNjUzMzM0YzYuODI2NjY3IDE3LjA2NjY2NyAxMy42NTMzMzMgMzQuMTMzMzMzIDE3LjA2NjY2NiA1MS4ybC0zMC43MiAxMC4yNHpNOTc2LjIxMzMzMyAzMTAuNjEzMzMzYy02LjgyNjY2Ny0xMy42NTMzMzMtMTMuNjUzMzMzLTI1LjYtMjIuMTg2NjY2LTM5LjI1MzMzM2wyOS4wMTMzMzMtMTguNzczMzMzYzguNTMzMzMzIDEzLjY1MzMzMyAxNy4wNjY2NjcgMjcuMzA2NjY3IDIzLjg5MzMzMyA0MC45NmwtMzAuNzIgMTcuMDY2NjY2ek05MzYuOTYgMjQ5LjE3MzMzM2MtOC41MzMzMzMtMTAuMjQtMTcuMDY2NjY3LTIwLjQ4LTI3LjMwNjY2Ny0zMC43MmwyNS42LTIzLjg5MzMzM2MxMC4yNCAxMC4yNCAyMC40OCAyMi4xODY2NjcgMjkuMDEzMzM0IDM0LjEzMzMzM2wtMjcuMzA2NjY3IDIwLjQ4ek04OTIuNTg2NjY3IDE5OS42OGMtNzYuOC03MS42OC0xODIuNjEzMzMzLTExMi42NC0yODYuNzItMTA5LjIyNjY2N3YtMzQuMTMzMzMzYzExNi4wNTMzMzMtMy40MTMzMzMgMjI2Ljk4NjY2NyAzOS4yNTMzMzMgMzEwLjYxMzMzMyAxMTcuNzZsLTIzLjg5MzMzMyAyNS42eiIgZmlsbD0iI0JDQzBDNCIgcC1pZD0iODIwNyIvPjxwYXRoIGQ9Ik05NDguOTA2NjY3IDcxMS42OGwtMzkuMjUzMzM0LTM5LjI1MzMzM2gtNjMuMTQ2NjY2bC0zMi40MjY2NjctMzIuNDI2NjY3aC0zMi40MjY2NjdsLTE1LjM2LTE1LjM2aC05MC40NTMzMzN2LTU4LjAyNjY2N2w1OS43MzMzMzMtMzkuMjUzMzMzaDM1Ljg0di0yMi4xODY2NjdsNTguMDI2NjY3LTU4LjAyNjY2NmgzOS4yNTMzMzN2MzQuMTMzMzMzaC0yMy44OTMzMzNsLTM5LjI1MzMzMyAzNy41NDY2Njd2NDIuNjY2NjY2aC01OS43MzMzMzRsLTM1Ljg0IDIzLjg5MzMzNHY1LjEyaDY5Ljk3MzMzNGwxNy4wNjY2NjYgMTUuMzZoMzAuNzJsMzIuNDI2NjY3IDMyLjQyNjY2Nmg2My4xNDY2NjdsMjUuNiAyNS42IDIzLjg5MzMzMy0yNS42aDcxLjY4djM0LjEzMzMzNGgtNTYuMzJ6IiBmaWxsPSIjMkE1MDgyIiBwLWlkPSI4MjA4Ii8+PHBhdGggZD0iTTgyNy43MzMzMzMgOTQzLjc4NjY2N2gtNDYuMDhsLTI1LjYtMjUuNnYtODAuMjEzMzM0TDczMy44NjY2NjcgODE1Ljc4NjY2N2gtNTEuMmwtNDAuOTYtMTAwLjY5MzMzNCA2MS40NC02MS40NGg3OC41MDY2NjZsNDcuNzg2NjY3IDQ3Ljc4NjY2N2gzMi40MjY2NjdsODAuMjEzMzMzIDgwLjIxMzMzM0w4ODcuNDY2NjY3IDgzNi4yNjY2Njd2NDcuNzg2NjY2bC01OS43MzMzMzQgNTkuNzMzMzM0eiBtLTMwLjcyLTM0LjEzMzMzNGgxNy4wNjY2NjdsMzcuNTQ2NjY3LTM3LjU0NjY2NnYtNDcuNzg2NjY3bDQwLjk2LTQwLjk2LTQ2LjA4LTQ2LjA4aC0zMi40MjY2NjdsLTQ3Ljc4NjY2Ny00Ny43ODY2NjdINzE2LjhsLTM0LjEzMzMzMyAzNC4xMzMzMzQgMjMuODkzMzMzIDU4LjAyNjY2Nmg0Mi42NjY2NjdsNDIuNjY2NjY2IDQyLjY2NjY2N1Y5MDQuNTMzMzMzbDUuMTIgNS4xMnoiIGZpbGw9IiMyQTUwODIiIHAtaWQ9IjgyMDkiLz48L3N2Zz4=" vertex="1" parent="1">
          <mxGeometry x="471" y="300.06" width="122" height="119.89" as="geometry" />
        </mxCell>
        <mxCell id="wvyHHVfMfl_ncNoVOAs7-12" value="算法开发" style="shape=image;verticalLabelPosition=bottom;labelBackgroundColor=none;verticalAlign=top;aspect=fixed;imageAspect=0;image=data:image/svg+xml,PHN2ZyB4bWxucz0iaHR0cDovL3d3dy53My5vcmcvMjAwMC9zdmciIHhtbG5zOnhsaW5rPSJodHRwOi8vd3d3LnczLm9yZy8xOTk5L3hsaW5rIiB0PSIxNjI1NjQyNjEyMjM2IiBjbGFzcz0iaWNvbiIgdmlld0JveD0iMC4wMDAxMTA3ODAzMTgyMDk0MzU3OSAwLjAwMDAxNTIxMzk5OTE3NjkyMTc4OSAxMDY3LjI0NzE5MjM4MjgxMjUgMTAyMy45OTkwMjM0Mzc1IiB2ZXJzaW9uPSIxLjEiIHAtaWQ9Ijk3NjQiIHdpZHRoPSIxMDY3LjI0NzE5MjM4MjgxMjUiIGhlaWdodD0iMTAyMy45OTkwMjM0Mzc1Ij48ZGVmcz48c3R5bGUgdHlwZT0idGV4dC9jc3MiLz48L2RlZnM+PHBhdGggZD0iTTE5Ni4zOTgzMDQgNTE2LjA2NDIwOGE5OC4zMzIwNzYgOTguMzMyMDc2IDAgMCAwLTk4LjYwOTQ1OC05NC4wMzI2NDggMjEuMzU4NDQ4IDIxLjM1ODQ0OCAwIDAgMCAwIDQyLjU3ODIwNSA1NS40NzY0ODggNTUuNDc2NDg4IDAgMSAxIDAgMTEwLjk1Mjk3NiAyMS4zNTg0NDggMjEuMzU4NDQ4IDAgMCAwIDAgNDIuNzE2ODk2IDk5LjAyNTUzMiA5OS4wMjU1MzIgMCAwIDAgOTEuMTIwMTMyLTYwLjA1MzI5OGM2Mi41NDk3NDEgOC4wNDQwOTEgOTcuMDgzODU1LTYuNzk1ODcgMTMwLjc4NTgyMi01MC40ODM2MDVhMjEuMDgxMDY2IDIxLjA4MTA2NiAwIDAgMC0zLjc0NDY2My0yOS45NTczMDMgMjEuMzU4NDQ4IDIxLjM1ODQ0OCAwIDAgMC0yOS45NTczMDQgMy43NDQ2NjMgODAuMTYzNTI2IDgwLjE2MzUyNiAwIDAgMS04OS41OTQ1MjkgMzQuODExNDk2eiBtMjA5LjI4NTA1MiAxNzQuMDU3NDgyYTEzNC41MzA0ODQgMTM0LjUzMDQ4NCAwIDAgMC0yMDEuNjU3MDM1IDE2Ljc4MTYzNyAxMzYuNDcyMTYxIDEzNi40NzIxNjEgMCAwIDAtMjUuMjQxODAyIDEwNS42ODI3MTEgMjAuNjY0OTkyIDIwLjY2NDk5MiAwIDAgMCA5LjAxNDkzIDEzLjg2OTEyMiAyMC44MDM2ODMgMjAuODAzNjgzIDAgMCAwIDE2LjIyNjg3MiAzLjA1MTIwNyAyMi4zMjkyODcgMjIuMzI5Mjg3IDAgMCAwIDEzLjg2OTEyMy05LjAxNDkzIDIxLjQ5NzEzOSAyMS40OTcxMzkgMCAwIDAgMy4xODk4OTgtMTUuNTMzNDE3IDkzLjg5Mzk1NiA5My44OTM5NTYgMCAwIDEgMTQ3Ljg0NDg0MS05MS41MzYyMDUgOTEuOTUyMjc5IDkxLjk1MjI3OSAwIDAgMSAzNC44MTE0OTYgNTUuNDc2NDg4IDIwLjY2NDk5MiAyMC42NjQ5OTIgMCAwIDAgMjUuMTAzMTExIDE2LjM2NTU2NCAyMS40OTcxMzkgMjEuNDk3MTM5IDAgMCAwIDE2LjUwNDI1Ni0yNS4xMDMxMTEgMTU0LjA4NTk0NiAxNTQuMDg1OTQ2IDAgMCAwLTYuNzk1ODctMjQuNTQ4MzQ2IDI2Ljc2NzQwNiAyNi43Njc0MDYgMCAwIDAgMC00LjcxNTUwMSA0MS42MDczNjYgNDEuNjA3MzY2IDAgMCAxIDQwLjQ5NzgzNi00MS42MDczNjcgMjEuNjM1ODMgMjEuNjM1ODMgMCAxIDAgMC00My4yNzE2NjEgODQuNzQwMzM2IDg0Ljc0MDMzNiAwIDAgMC03My42NDUwMzggNDQuMzgxMTkxeiBtMTAzLjYwMjM0Mi0xNjYuNDI5NDY1aDQyLjQzOTUxNHYxMjAuNTIyNjcxSDc2MS40MjYzMzhsNjYuODQ5MTY4IDk0LjMxMDAzaDQ4LjEyNTg1NGE4NC42MDE2NDUgODQuNjAxNjQ1IDAgMSAxIDMuNjA1OTcyIDQyLjcxNjg5NmgtNzMuMDkwMjc0bC02OS4zNDU2MS05NS4xNDIxNzhoLTE4NS44NDYyMzZ2MTE2LjIyMzI0M2gxMzQuODA3ODY3bDUzLjUzNDgxMSA2Ny40MDM5MzRhODQuMDQ2ODggODQuMDQ2ODggMCAxIDEtMjYuNzY3NDA2IDI5LjQwMjUzOEw2NjUuNzI5Mzk1IDg0NS4zMTcxNjZoLTExMy43MjY4MDF2MTcuODkxMTY3YTE2Ni40Mjk0NjUgMTY2LjQyOTQ2NSAwIDAgMS0xNzAuMzEyODE5IDE2MC43NDMxMjUgMTczLjY0MTQwOCAxNzMuNjQxNDA4IDAgMCAxLTE2MS4yOTc4OS0xMDkuNzA0NzU2QzEzMi44Nzc3MjUgOTIyLjg0NTU1OCA1Mi45OTE1ODIgODUyLjExMzAzNiA0MS42MTg5MDIgNzUwLjg2ODQ0NGEyMzAuMjI3NDI3IDIzMC4yMjc0MjcgMCAwIDEgNC4yOTk0MjgtNjkuMzQ1NjFBMjY2LjAwOTc2MSAyNjYuMDA5NzYxIDAgMCAxIDAuMDExNTM2IDUyOS42NTU5NDdjMC05MS44MTM1ODggNDcuMTU1MDE1LTE3MS42OTk3MzEgMTA4LjQ1NjUzNC0yMDEuNjU3MDM1YTc2LjAwMjc4OSA3Ni4wMDI3ODkgMCAwIDEtMi40OTY0NDItMjMuNzE2MTk5YzAtOTguNjA5NDU4IDY5LjM0NTYxLTE3OS40NjY0NCAxNTQuNzc5NDAzLTE4Mi4xMDE1NzNBMTQ2LjA0MTg1NSAxNDYuMDQxODU1IDAgMCAxIDQwMy40NjQyOTcgMTUuMzg4OWExNTEuMzEyMTIyIDE1MS4zMTIxMjIgMCAwIDEgMTQ3LjAxMjY5NCAxMjYuMDcwMzJoNjAuNzQ2NzU1bDQyLjg1NTU4Ny00NS40OTA3MmE4NC4zMjQyNjIgODQuMzI0MjYyIDAgMSAxIDEzLjAzNjk3NSA0OC4yNjQ1NDVsLTM2Ljc1MzE3NCAzOS44MDQzOGgtNzguNjM3OTIydjE0MC42MzI4OThoMTM0LjY2OTE3NUw3NzMuMzUzNzgzIDIwOC41ODU3NzFoODcuNzkxNTQzdjQuMDIyMDQ1YTg0LjA0Njg4IDg0LjA0Njg4IDAgMSAxLTMuODgzMzU1IDM0LjUzNDExNGgtNjIuOTY1ODE0TDcwNy4zMzY3NjIgMzYzLjIyNjQ4Mkg1NTEuNzI1MjEydjExOC4zMDM2MTJoLTQyLjQzOTUxNFYzODguODg0MzU4aC00MS42MDczNjZ2OTMuMzM5MTkyaC05NC4wMzI2NDh2NDEuNjA3MzY2aDkzLjMzOTE5MnY5My4zMzkxOTFoNDEuNjA3MzY2eiBtNDIuNDM5NTE0LTQxLjYwNzM2N2gzOC44MzM1NDJ2NDEuNjA3MzY3aC0zOC44MzM1NDJ6TTI5OS41ODQ1NzMgMjk2LjkzMjA3OWExNzYuNTUzOTI0IDE3Ni41NTM5MjQgMCAwIDAgMTI5LjEyMTUyNiA1NS40NzY0ODggMjEuMjE5NzU3IDIxLjIxOTc1NyAwIDAgMCAyMC45NDIzNzQtMjEuMjE5NzU3IDIyLjc0NTM2IDIyLjc0NTM2IDAgMCAwLTIxLjc3NDUyMS0yMC4zODc2MDljLTczLjY0NTAzOC0xMC40MDE4NDItMTM0LjExNDQxMS02MS44NTYyODQtMTM0LjExNDQxMS0xMzYuODg4MjM1YTIxLjA4MTA2NiAyMS4wODEwNjYgMCAwIDAtNDEuNjA3MzY2IDAgMTgwLjI5ODU4NyAxODAuMjk4NTg3IDAgMCAwIDIwLjI0ODkxOCA4My4yMTQ3MzIgMTEwLjk1Mjk3NyAxMTAuOTUyOTc3IDAgMCAwLTg3LjUxNDE2IDEwOC40NTY1MzUgMjEuMDgxMDY2IDIxLjA4MTA2NiAwIDAgMCA0MS42MDczNjYgMCA2Ny4yNjUyNDIgNjcuMjY1MjQyIDAgMCAxIDY3LjI2NTI0Mi02OC4wOTczODkgMjAuNjY0OTkyIDIwLjY2NDk5MiAwIDAgMCA3LjA3MzI1My0wLjgzMjE0OHogbTYwMC4yNTU2MDMgMjI2Ljg5ODgzN2gtMzIuNzMxMTI4bC0yOS45NTczMDQgNDAuMzU5MTQ1YTIzLjE2MTQzNCAyMy4xNjE0MzQgMCAwIDEtMTkuMTM5Mzg4IDkuODQ3MDc3aC0xLjUyNTYwNGEyMi44ODQwNTEgMjIuODg0MDUxIDAgMCAxLTE5LjEzOTM4OC0xMi4wNjYxMzZsLTM4LjQxNzQ2OC03My4zNjc2NTYtMTUuMzk0NzI2IDIyLjE5MDU5NWEyNy43MzgyNDQgMjcuNzM4MjQ0IDAgMCAxLTE5LjQxNjc3MSAxMy4wMzY5NzVINjM1LjIxNzMyN3YtNDEuNjA3MzY2aDc1LjU4NjcxNWwzMS4wNjY4MzQtNDguOTU4MDAxYTIzLjE2MTQzNCAyMy4xNjE0MzQgMCAwIDEgMjAuOTQyMzc0LTEwLjI2MzE1MSAyMi44ODQwNTEgMjIuODg0MDUxIDAgMCAxIDE5LjEzOTM4OCAxMi4yMDQ4MjhsMzguMjc4Nzc3IDczLjM2NzY1NiAxMy44NjkxMjItMTcuNDc1MDk0YTI1LjI0MTgwMiAyNS4yNDE4MDIgMCAwIDEgMTkuOTcxNTM2LTkuMjkyMzEyaDQ4LjgxOTMxYTg0LjE4NTU3MSA4NC4xODU1NzEgMCAxIDEtMi40OTY0NDIgNDEuNjA3MzY2eiBtLTkuOTg1NzY4LTI4Ni44MTM0NDVhNjUuMzIzNTY1IDY1LjMyMzU2NSAwIDEgMSAxLjI0ODIyMSAweiBtMTcuODkxMTY4IDUxNi4zNDc0MTVhNTAuNDgzNjA0IDUwLjQ4MzYwNCAwIDEgMCA1MC4zNDQ5MTMtNTAuNDgzNjA0IDUwLjM0NDkxMyA1MC4zNDQ5MTMgMCAwIDAtNTAuMzQ0OTEzIDUwLjQ4MzYwNHogbTI1LjI0MTgwMi0yNDYuMTc2OTE3YTUwLjQ4MzYwNCA1MC40ODM2MDQgMCAxIDAgNTAuMzQ0OTEzLTUwLjM0NDkxMyA1MC4zNDQ5MTMgNTAuMzQ0OTEzIDAgMCAwLTUwLjM0NDkxMyA1MC4zNDQ5MTN6TTczNi4zMjMyMjcgOTM5LjQ4ODUwNWE1MC40ODM2MDQgNTAuNDgzNjA0IDAgMSAwIDUwLjM0NDkxMy01MC40ODM2MDUgNTAuMzQ0OTEzIDUwLjM0NDkxMyAwIDAgMC01MC4zNDQ5MTMgNTAuNDgzNjA1ek02ODUuODM5NjIyIDk5LjU3NDQ3MWE0OS43OTAxNDggNDkuNzkwMTQ4IDAgMSAxIDEuNTI1NjA0IDB6IG0tMzI3LjcyNzM1NCA0LjAyMjA0NmExMjcuMTc5ODQ5IDEyNy4xNzk4NDkgMCAwIDAgMTE4LjcxOTY4NSA4MS4xMzQzNjQgMjEuMjE5NzU3IDIxLjIxOTc1NyAwIDEgMCAwLTQxLjYwNzM2NiA4NS4xNTY0MSA4NS4xNTY0MSAwIDAgMS03OS4xOTI2ODctNTQuMjI4MjY4IDIxLjIxOTc1NyAyMS4yMTk3NTcgMCAxIDAtMzkuNTI2OTk4IDE1LjM5NDcyNnogbTEyNi4wNzAzMTkgNzA4LjQzNDc1NmExMzYuNzQ5NTQ0IDEzNi43NDk1NDQgMCAwIDAtMTM2LjE5NDc3OCAxMzYuMTk0Nzc5IDIxLjQ5NzEzOSAyMS40OTcxMzkgMCAxIDAgNDIuODU1NTg3IDBBOTQuMDMyNjQ4IDk0LjAzMjY0OCAwIDAgMSA0ODUuNDMwODA4IDg1NC40NzA3ODZhMjEuMzU4NDQ4IDIxLjM1ODQ0OCAwIDAgMCAwLTQyLjU3ODIwNXoiIGZpbGw9IiM0NDQ0NDQiIHAtaWQ9Ijk3NjUiLz48L3N2Zz4=;" vertex="1" parent="1">
          <mxGeometry x="679" y="330" width="45.48" height="43.64" as="geometry" />
        </mxCell>
        <mxCell id="wvyHHVfMfl_ncNoVOAs7-18" value="" style="html=1;shadow=0;dashed=0;align=center;verticalAlign=middle;shape=mxgraph.arrows2.bendArrow;dy=15;dx=38;notch=0;arrowHead=55;rounded=1;labelBackgroundColor=none;strokeColor=#FFFFFF;fillColor=#3399FF;rotation=45;flipH=0;flipV=1;" vertex="1" parent="1">
          <mxGeometry x="340" y="330" width="80" height="85.05" as="geometry" />
        </mxCell>
        <mxCell id="wvyHHVfMfl_ncNoVOAs7-19" value="" style="html=1;shadow=0;dashed=0;align=center;verticalAlign=middle;shape=mxgraph.arrows2.bendArrow;dy=15;dx=38;notch=0;arrowHead=55;rounded=1;labelBackgroundColor=none;strokeColor=#FFFFFF;fillColor=#3399FF;rotation=30;flipH=1;flipV=1;direction=north;" vertex="1" parent="1">
          <mxGeometry x="659.215" y="225.05499999999998" width="85.05" height="80" as="geometry" />
        </mxCell>
        <mxCell id="wvyHHVfMfl_ncNoVOAs7-20" value="" style="html=1;shadow=0;dashed=0;align=center;verticalAlign=middle;shape=mxgraph.arrows2.bendArrow;dy=15;dx=38;notch=0;arrowHead=55;rounded=1;labelBackgroundColor=none;strokeColor=#FFFFFF;fillColor=#3399FF;rotation=-120;flipH=0;flipV=0;direction=north;" vertex="1" parent="1">
          <mxGeometry x="665.715" y="439.995" width="85.05" height="80" as="geometry" />
        </mxCell>
        <mxCell id="wvyHHVfMfl_ncNoVOAs7-26" value="" style="html=1;shadow=0;dashed=0;align=center;verticalAlign=middle;shape=mxgraph.arrows2.arrow;dy=0.6;dx=40;direction=north;notch=0;labelBackgroundColor=none;strokeColor=#6c8ebf;fillColor=#66B2FF;" vertex="1" parent="1">
          <mxGeometry x="500" y="480" width="60.5" height="60" as="geometry" />
        </mxCell>
      </root>
    </mxGraphModel>
  </diagram>
</mxfile>
